<svg width="32" height="32" viewBox="0 0 32 32" fill="none" xmlns="http://www.w3.org/2000/svg">
<g clip-path="url(#clip0_148_6290)">
<path d="M16 0C7.164 0 0 7.164 0 16C0 24.836 7.164 32 16 32C24.836 32 32 24.836 32 16C32 7.164 24.836 0 16 0ZM24.088 12.86C24.332 18.247 20.315 24.252 13.203 24.252C11.04 24.252 9.028 23.617 7.333 22.531C9.35843 22.7738 11.3975 22.2034 13.003 20.945C12.2037 20.9296 11.4292 20.665 10.7876 20.1881C10.1459 19.7112 9.66922 19.0459 9.424 18.285C9.9981 18.3953 10.5898 18.3731 11.154 18.22C9.314 17.85 8.041 16.19 8.083 14.416C8.61463 14.7114 9.20911 14.8756 9.817 14.895C9.00603 14.353 8.43206 13.5223 8.21192 12.5721C7.99177 11.6218 8.14199 10.6234 8.632 9.78C9.5934 10.9633 10.793 11.9311 12.1528 12.6206C13.5126 13.3101 15.0023 13.7058 16.525 13.782C15.967 11.387 17.784 9.079 20.257 9.079C21.357 9.079 22.353 9.544 23.052 10.289C23.9099 10.1205 24.7325 9.80589 25.484 9.359C25.198 10.2461 24.5996 10.9991 23.8 11.478C24.5591 11.3878 25.3003 11.1842 25.999 10.874C25.4868 11.6454 24.8394 12.3188 24.088 12.86Z" fill="url(#paint0_linear_148_6290)"/>
</g>
<defs>
<linearGradient id="paint0_linear_148_6290" x1="0" y1="0" x2="32.0006" y2="0.000635264" gradientUnits="userSpaceOnUse">
<stop offset="0.0001" stop-color="#586FFF"/>
<stop offset="1" stop-color="#E26CFF"/>
</linearGradient>
<clipPath id="clip0_148_6290">
<rect width="32" height="32" fill="white"/>
</clipPath>
</defs>
</svg>
